<svg width="923" height="180" viewBox="0 0 923 180" fill="none" xmlns="http://www.w3.org/2000/svg">
<path d="M303.598 95.9888C303.598 85.9787 301.311 78.193 296.739 72.6318C292.29 67.0707 285.06 64.2901 275.05 64.2901C272.949 64.2901 270.725 64.4137 268.377 64.6608C266.152 64.7844 263.928 65.1552 261.703 65.7731V121.199C263.681 122.559 266.276 123.856 269.489 125.092C272.826 126.204 276.348 126.761 280.055 126.761C288.212 126.761 294.144 123.98 297.851 118.419C301.682 112.858 303.598 105.381 303.598 95.9888ZM326.584 95.618C326.584 103.033 325.595 109.83 323.618 116.009C321.764 122.188 319.045 127.502 315.461 131.951C311.878 136.4 307.367 139.86 301.929 142.332C296.615 144.803 290.56 146.039 283.763 146.039C279.19 146.039 274.988 145.483 271.157 144.371C267.326 143.259 264.175 142.023 261.703 140.663V178.294H239.273V50.2018C243.846 48.966 249.469 47.792 256.142 46.6797C262.816 45.5675 269.86 45.0114 277.275 45.0114C284.937 45.0114 291.796 46.1854 297.851 48.5334C303.907 50.8815 309.035 54.28 313.237 58.7289C317.562 63.0543 320.837 68.3683 323.062 74.6709C325.41 80.85 326.584 87.8324 326.584 95.618Z" fill="white"/>
<path d="M344.325 95.9888C344.325 87.4616 345.56 79.9849 348.032 73.5587C350.627 67.1325 354.026 61.8185 358.227 57.6167C362.429 53.2913 367.249 50.0782 372.686 47.9773C378.124 45.7529 383.685 44.6406 389.37 44.6406C402.717 44.6406 413.098 48.7806 420.513 57.0606C428.051 65.3405 431.82 77.6987 431.82 94.135C431.82 95.3708 431.758 96.792 431.635 98.3986C431.635 99.8816 431.573 101.241 431.449 102.477H367.496C368.114 110.262 370.833 116.318 375.652 120.643C380.596 124.845 387.702 126.946 396.97 126.946C402.408 126.946 407.351 126.452 411.8 125.463C416.373 124.474 419.956 123.424 422.552 122.312L425.518 140.663C424.282 141.281 422.552 141.961 420.327 142.703C418.226 143.32 415.755 143.877 412.912 144.371C410.193 144.989 407.227 145.483 404.014 145.854C400.801 146.225 397.526 146.41 394.19 146.41C385.663 146.41 378.248 145.174 371.945 142.703C365.642 140.107 360.452 136.585 356.374 132.136C352.296 127.564 349.268 122.25 347.29 116.194C345.313 110.015 344.325 103.28 344.325 95.9888ZM409.39 85.9786C409.39 82.8891 408.958 79.9849 408.093 77.2662C407.228 74.4238 405.93 72.0139 404.2 70.0366C402.593 67.9357 400.554 66.3292 398.082 65.2169C395.734 63.9811 392.892 63.3632 389.555 63.3632C386.095 63.3632 383.067 64.0429 380.472 65.4023C377.877 66.6381 375.652 68.3065 373.799 70.4074C372.069 72.5083 370.709 74.9181 369.721 77.6369C368.732 80.3557 368.052 83.1363 367.681 85.9786H409.39Z" fill="white"/>
<path d="M455.601 50.2018C459.927 48.966 465.55 47.792 472.47 46.6797C479.391 45.5675 487.053 45.0114 495.457 45.0114C503.366 45.0114 509.977 46.1236 515.291 48.3481C520.605 50.449 524.807 53.4767 527.897 57.4313C531.11 61.2623 533.334 65.9584 534.57 71.5196C535.929 76.9572 536.609 82.9509 536.609 89.5007V144H514.179V93.0228C514.179 87.8324 513.808 83.4452 513.067 79.8614C512.449 76.1539 511.337 73.188 509.73 70.9635C508.247 68.6154 506.146 66.9471 503.428 65.9584C500.832 64.8462 497.619 64.2901 493.788 64.2901C490.946 64.2901 487.98 64.4755 484.89 64.8462C481.801 65.217 479.515 65.5259 478.032 65.7731V144H455.601V50.2018Z" fill="white"/>
<path d="M651.718 95.4326C651.718 103.095 650.606 110.077 648.381 116.38C646.157 122.682 643.006 128.058 638.927 132.507C634.849 136.956 629.906 140.416 624.098 142.888C618.413 145.36 612.11 146.595 605.19 146.595C598.269 146.595 591.966 145.36 586.282 142.888C580.597 140.416 575.715 136.956 571.637 132.507C567.559 128.058 564.346 122.682 561.998 116.38C559.773 110.077 558.661 103.095 558.661 95.4326C558.661 87.7706 559.773 80.85 561.998 74.6709C564.346 68.3683 567.559 62.9925 571.637 58.5435C575.839 54.0946 580.782 50.6961 586.467 48.3481C592.152 45.8764 598.393 44.6406 605.19 44.6406C611.987 44.6406 618.228 45.8764 623.912 48.3481C629.721 50.6961 634.664 54.0946 638.742 58.5435C642.82 62.9925 645.972 68.3683 648.196 74.6709C650.544 80.85 651.718 87.7706 651.718 95.4326ZM628.732 95.4326C628.732 85.7933 626.631 78.193 622.429 72.6318C618.351 66.9471 612.605 64.1047 605.19 64.1047C597.775 64.1047 591.966 66.9471 587.765 72.6318C583.686 78.193 581.647 85.7933 581.647 95.4326C581.647 105.196 583.686 112.919 587.765 118.604C591.966 124.289 597.775 127.131 605.19 127.131C612.605 127.131 618.351 124.289 622.429 118.604C626.631 112.919 628.732 105.196 628.732 95.4326Z" fill="white"/>
<path d="M730.067 93.0228C730.067 82.8891 728.769 75.5978 726.174 71.1489C723.702 66.5763 719.006 64.2901 712.086 64.2901C709.614 64.2901 706.895 64.4755 703.929 64.8462C700.963 65.217 698.739 65.5259 697.256 65.7731V144H674.826V50.2018C679.151 48.966 684.774 47.792 691.695 46.6797C698.739 45.5675 706.154 45.0114 713.939 45.0114C720.613 45.0114 726.05 45.8764 730.252 47.6066C734.578 49.3367 738.161 51.623 741.004 54.4654C742.363 53.4767 744.093 52.4263 746.194 51.314C748.295 50.2018 750.643 49.2131 753.238 48.3481C755.834 47.3594 758.552 46.5561 761.395 45.9382C764.361 45.3203 767.327 45.0114 770.293 45.0114C777.831 45.0114 784.01 46.1236 788.83 48.3481C793.773 50.449 797.604 53.4767 800.323 57.4313C803.165 61.2623 805.081 65.9584 806.07 71.5196C807.182 76.9572 807.738 82.9509 807.738 89.5007V144H785.308V93.0228C785.308 82.8891 784.072 75.5978 781.6 71.1489C779.129 66.5763 774.371 64.2901 767.327 64.2901C763.743 64.2901 760.344 64.908 757.131 66.1438C753.918 67.256 751.508 68.3683 749.902 69.4805C750.89 72.5701 751.57 75.845 751.941 79.3052C752.312 82.7655 752.497 86.473 752.497 90.4276V144H730.067V93.0228Z" fill="white"/>
<path d="M922.898 95.4326C922.898 103.095 921.785 110.077 919.561 116.38C917.336 122.682 914.185 128.058 910.107 132.507C906.029 136.956 901.085 140.416 895.277 142.888C889.592 145.36 883.29 146.595 876.369 146.595C869.449 146.595 863.146 145.36 857.461 142.888C851.776 140.416 846.895 136.956 842.817 132.507C838.739 128.058 835.525 122.682 833.177 116.38C830.953 110.077 829.841 103.095 829.841 95.4326C829.841 87.7706 830.953 80.85 833.177 74.6709C835.525 68.3683 838.739 62.9925 842.817 58.5435C847.018 54.0946 851.962 50.6961 857.646 48.3481C863.331 45.8764 869.572 44.6406 876.369 44.6406C883.166 44.6406 889.407 45.8764 895.092 48.3481C900.9 50.6961 905.843 54.0946 909.921 58.5435C914 62.9925 917.151 68.3683 919.375 74.6709C921.723 80.85 922.898 87.7706 922.898 95.4326ZM899.911 95.4326C899.911 85.7933 897.81 78.193 893.609 72.6318C889.531 66.9471 883.784 64.1047 876.369 64.1047C868.954 64.1047 863.146 66.9471 858.944 72.6318C854.866 78.193 852.827 85.7933 852.827 95.4326C852.827 105.196 854.866 112.919 858.944 118.604C863.146 124.289 868.954 127.131 876.369 127.131C883.784 127.131 889.531 124.289 893.609 118.604C897.81 112.919 899.911 105.196 899.911 95.4326Z" fill="white"/>
<path d="M173.676 53.4729L77.7641 77.3367C75.9034 77.7997 74.2511 78.8718 73.0702 80.3825C71.8893 81.8932 71.2478 83.7555 71.2478 85.673V127L121.7 114.439V158.843C121.7 160.971 120.988 163.037 119.678 164.713C118.368 166.389 116.535 167.579 114.47 168.093L69.3432 179.326V135.605C69.3432 133.691 68.7033 131.833 67.5252 130.324C66.3471 128.816 64.6985 127.745 62.8417 127.282L6.50176 113.224C4.64488 112.761 2.99624 111.69 1.81811 110.182C0.639975 108.674 3.89701e-06 106.815 0 104.901V59.7481L69.3433 77.0502V34.2828C69.3433 32.368 69.9839 30.5082 71.1632 28.9996C72.3424 27.4911 73.9925 26.4204 75.8507 25.9581L180.184 0V45.1481C180.184 47.0629 179.543 48.9227 178.364 50.4313C177.185 51.9399 175.534 53.0106 173.676 53.4729Z" fill="white"/>
</svg>
