<svg width="923" height="180" viewBox="0 0 923 180" fill="none" xmlns="http://www.w3.org/2000/svg">
<path d="M303.598 96.2388C303.598 86.2287 301.311 78.443 296.739 72.8818C292.29 67.3207 285.06 64.5401 275.05 64.5401C272.949 64.5401 270.725 64.6637 268.377 64.9108C266.152 65.0344 263.928 65.4052 261.703 66.0231V121.449C263.681 122.809 266.276 124.106 269.489 125.342C272.826 126.454 276.348 127.011 280.055 127.011C288.212 127.011 294.144 124.23 297.851 118.669C301.682 113.108 303.598 105.631 303.598 96.2388ZM326.584 95.868C326.584 103.283 325.595 110.08 323.618 116.259C321.764 122.438 319.045 127.752 315.461 132.201C311.878 136.65 307.367 140.11 301.929 142.582C296.615 145.053 290.56 146.289 283.763 146.289C279.19 146.289 274.988 145.733 271.157 144.621C267.326 143.509 264.175 142.273 261.703 140.913V178.544H239.273V50.4518C243.846 49.216 249.469 48.042 256.142 46.9297C262.816 45.8175 269.86 45.2614 277.275 45.2614C284.937 45.2614 291.796 46.4354 297.851 48.7834C303.907 51.1315 309.035 54.53 313.237 58.9789C317.562 63.3043 320.837 68.6183 323.062 74.9209C325.41 81.1 326.584 88.0824 326.584 95.868Z" fill="black"/>
<path d="M344.325 96.2388C344.325 87.7116 345.56 80.2349 348.032 73.8087C350.627 67.3825 354.026 62.0685 358.227 57.8667C362.429 53.5413 367.249 50.3282 372.686 48.2273C378.124 46.0029 383.685 44.8906 389.37 44.8906C402.717 44.8906 413.098 49.0306 420.513 57.3106C428.051 65.5905 431.82 77.9487 431.82 94.385C431.82 95.6208 431.758 97.042 431.635 98.6486C431.635 100.132 431.573 101.491 431.449 102.727H367.496C368.114 110.512 370.833 116.568 375.652 120.893C380.596 125.095 387.702 127.196 396.97 127.196C402.408 127.196 407.351 126.702 411.8 125.713C416.373 124.724 419.956 123.674 422.552 122.562L425.518 140.913C424.282 141.531 422.552 142.211 420.327 142.953C418.226 143.57 415.755 144.127 412.912 144.621C410.193 145.239 407.227 145.733 404.014 146.104C400.801 146.475 397.526 146.66 394.19 146.66C385.663 146.66 378.248 145.424 371.945 142.953C365.642 140.357 360.452 136.835 356.374 132.386C352.296 127.814 349.268 122.5 347.29 116.444C345.313 110.265 344.325 103.53 344.325 96.2388ZM409.39 86.2286C409.39 83.1391 408.958 80.2349 408.093 77.5162C407.228 74.6738 405.93 72.2639 404.2 70.2866C402.593 68.1857 400.554 66.5792 398.082 65.4669C395.734 64.2311 392.892 63.6132 389.555 63.6132C386.095 63.6132 383.067 64.2929 380.472 65.6523C377.877 66.8881 375.652 68.5565 373.799 70.6574C372.069 72.7583 370.709 75.1681 369.721 77.8869C368.732 80.6057 368.052 83.3863 367.681 86.2286H409.39Z" fill="black"/>
<path d="M455.601 50.4518C459.927 49.216 465.55 48.042 472.47 46.9297C479.391 45.8175 487.053 45.2614 495.457 45.2614C503.366 45.2614 509.977 46.3736 515.291 48.5981C520.605 50.699 524.807 53.7267 527.897 57.6813C531.11 61.5123 533.334 66.2084 534.57 71.7696C535.929 77.2072 536.609 83.2009 536.609 89.7507V144.25H514.179V93.2728C514.179 88.0824 513.808 83.6952 513.067 80.1114C512.449 76.4039 511.337 73.438 509.73 71.2135C508.247 68.8654 506.146 67.1971 503.428 66.2084C500.832 65.0962 497.619 64.5401 493.788 64.5401C490.946 64.5401 487.98 64.7255 484.89 65.0962C481.801 65.467 479.515 65.7759 478.032 66.0231V144.25H455.601V50.4518Z" fill="black"/>
<path d="M651.718 95.6826C651.718 103.345 650.606 110.327 648.381 116.63C646.157 122.932 643.006 128.308 638.927 132.757C634.849 137.206 629.906 140.666 624.098 143.138C618.413 145.61 612.11 146.845 605.19 146.845C598.269 146.845 591.966 145.61 586.282 143.138C580.597 140.666 575.715 137.206 571.637 132.757C567.559 128.308 564.346 122.932 561.998 116.63C559.773 110.327 558.661 103.345 558.661 95.6826C558.661 88.0206 559.773 81.1 561.998 74.9209C564.346 68.6183 567.559 63.2425 571.637 58.7935C575.839 54.3446 580.782 50.9461 586.467 48.5981C592.152 46.1264 598.393 44.8906 605.19 44.8906C611.987 44.8906 618.228 46.1264 623.912 48.5981C629.721 50.9461 634.664 54.3446 638.742 58.7935C642.82 63.2425 645.972 68.6183 648.196 74.9209C650.544 81.1 651.718 88.0206 651.718 95.6826ZM628.732 95.6826C628.732 86.0433 626.631 78.443 622.429 72.8818C618.351 67.1971 612.605 64.3547 605.19 64.3547C597.775 64.3547 591.966 67.1971 587.765 72.8818C583.686 78.443 581.647 86.0433 581.647 95.6826C581.647 105.446 583.686 113.169 587.765 118.854C591.966 124.539 597.775 127.381 605.19 127.381C612.605 127.381 618.351 124.539 622.429 118.854C626.631 113.169 628.732 105.446 628.732 95.6826Z" fill="black"/>
<path d="M730.067 93.2728C730.067 83.1391 728.769 75.8478 726.174 71.3989C723.702 66.8263 719.006 64.5401 712.086 64.5401C709.614 64.5401 706.895 64.7255 703.929 65.0962C700.963 65.467 698.739 65.7759 697.256 66.0231V144.25H674.826V50.4518C679.151 49.216 684.774 48.042 691.695 46.9297C698.739 45.8175 706.154 45.2614 713.939 45.2614C720.613 45.2614 726.05 46.1264 730.252 47.8566C734.578 49.5867 738.161 51.873 741.004 54.7154C742.363 53.7267 744.093 52.6763 746.194 51.564C748.295 50.4518 750.643 49.4631 753.238 48.5981C755.834 47.6094 758.552 46.8061 761.395 46.1882C764.361 45.5703 767.327 45.2614 770.293 45.2614C777.831 45.2614 784.01 46.3736 788.83 48.5981C793.773 50.699 797.604 53.7267 800.323 57.6813C803.165 61.5123 805.081 66.2084 806.07 71.7696C807.182 77.2072 807.738 83.2009 807.738 89.7507V144.25H785.308V93.2728C785.308 83.1391 784.072 75.8478 781.6 71.3989C779.129 66.8263 774.371 64.5401 767.327 64.5401C763.743 64.5401 760.344 65.158 757.131 66.3938C753.918 67.506 751.508 68.6183 749.902 69.7305C750.89 72.8201 751.57 76.095 751.941 79.5552C752.312 83.0155 752.497 86.723 752.497 90.6776V144.25H730.067V93.2728Z" fill="black"/>
<path d="M922.898 95.6826C922.898 103.345 921.785 110.327 919.561 116.63C917.336 122.932 914.185 128.308 910.107 132.757C906.029 137.206 901.085 140.666 895.277 143.138C889.592 145.61 883.29 146.845 876.369 146.845C869.449 146.845 863.146 145.61 857.461 143.138C851.776 140.666 846.895 137.206 842.817 132.757C838.739 128.308 835.525 122.932 833.177 116.63C830.953 110.327 829.841 103.345 829.841 95.6826C829.841 88.0206 830.953 81.1 833.177 74.9209C835.525 68.6183 838.739 63.2425 842.817 58.7935C847.018 54.3446 851.962 50.9461 857.646 48.5981C863.331 46.1264 869.572 44.8906 876.369 44.8906C883.166 44.8906 889.407 46.1264 895.092 48.5981C900.9 50.9461 905.843 54.3446 909.921 58.7935C914 63.2425 917.151 68.6183 919.375 74.9209C921.723 81.1 922.898 88.0206 922.898 95.6826ZM899.911 95.6826C899.911 86.0433 897.81 78.443 893.609 72.8818C889.531 67.1971 883.784 64.3547 876.369 64.3547C868.954 64.3547 863.146 67.1971 858.944 72.8818C854.866 78.443 852.827 86.0433 852.827 95.6826C852.827 105.446 854.866 113.169 858.944 118.854C863.146 124.539 868.954 127.381 876.369 127.381C883.784 127.381 889.531 124.539 893.609 118.854C897.81 113.169 899.911 105.446 899.911 95.6826Z" fill="black"/>
<path d="M173.676 53.7229L77.7641 77.5867C75.9034 78.0497 74.2511 79.1218 73.0702 80.6325C71.8893 82.1432 71.2478 84.0055 71.2478 85.923V127.25L121.7 114.689V159.093C121.7 161.221 120.988 163.287 119.678 164.963C118.368 166.639 116.535 167.829 114.47 168.343L69.3432 179.576V135.855C69.3432 133.941 68.7033 132.083 67.5252 130.574C66.3471 129.066 64.6985 127.995 62.8417 127.532L6.50176 113.474C4.64488 113.011 2.99624 111.94 1.81811 110.432C0.639975 108.924 3.89701e-06 107.065 0 105.151V59.9981L69.3433 77.3002V34.5328C69.3433 32.618 69.9839 30.7582 71.1632 29.2496C72.3424 27.7411 73.9925 26.6704 75.8507 26.2081L180.184 0.25V45.3981C180.184 47.3129 179.543 49.1727 178.364 50.6813C177.185 52.1899 175.534 53.2606 173.676 53.7229Z" fill="#00CC9C"/>
</svg>
